PathFileType	4	(X/Y/Z)	C:\Users\italobelli\Desktop\GitHub\PTbot_officialCBL\Personal_Results\ABD01_noisy1.trc
DataRate	CameraRate	NumFrames	NumMarkers	Units	OrigDataRate	OrigDataStartFrame	OrigNumFrames
104.666667	104.666667	50	9	m	104.666667	276	1100
Frame#	Time		gu		centelbow		EpL		centpxt8		centijc7		ij		ts		aa		ai
			X1	Y1	Z1	X2	Y2	Z2	X3	Y3	Z3	X4	Y4	Z4	X5	Y5	Z5	X6	Y6	Z6	X7	Y7	Z7	X8	Y8	Z8	X9	Y9	Z9

276	2.6274	-0.075394	-0.021638	0.16417	-0.11432	-0.26132	0.19388	-0.094759	-0.25704	0.21892	-0.046816	-0.15316	-0.008669	-0.046816	0.031938	-0.008669	0	0	0	-0.13669	0.031132	0.060453	-0.099219	0.017488	0.17283	-0.16114	-0.079706	0.060628
277	2.6369	-0.075366	-0.021629	0.16416	-0.11409	-0.26127	0.19363	-0.094581	-0.25699	0.21869	-0.046816	-0.15316	-0.008669	-0.046816	0.031938	-0.008669	0	0	0	-0.13668	0.03114	0.060448	-0.099222	0.017497	0.17283	-0.16113	-0.079698	0.060615
278	2.6465	-0.075337	-0.021619	0.16414	-0.11384	-0.26121	0.19337	-0.094397	-0.25695	0.21846	-0.046816	-0.15316	-0.008669	-0.046816	0.031938	-0.008669	0	0	0	-0.13667	0.031148	0.060441	-0.099225	0.017506	0.17282	-0.16111	-0.079691	0.060602
279	2.6561	-0.075305	-0.021609	0.16413	-0.1136	-0.26116	0.1931	-0.094208	-0.2569	0.21823	-0.046816	-0.15316	-0.008669	-0.046816	0.031938	-0.008669	0	0	0	-0.13666	0.031156	0.060434	-0.099228	0.017516	0.17282	-0.1611	-0.079684	0.060588
280	2.6656	-0.075272	-0.021599	0.16411	-0.11334	-0.2611	0.19283	-0.094015	-0.25685	0.21799	-0.046816	-0.15316	-0.008669	-0.046816	0.031938	-0.008669	0	0	0	-0.13665	0.031165	0.060427	-0.099232	0.017526	0.17281	-0.16108	-0.079677	0.060574
281	2.6752	-0.075237	-0.021589	0.16409	-0.11308	-0.26105	0.19256	-0.093817	-0.2568	0.21775	-0.046816	-0.15316	-0.008669	-0.046816	0.031938	-0.008669	0	0	0	-0.13664	0.031173	0.060419	-0.099235	0.017537	0.17281	-0.16107	-0.079669	0.06056
282	2.6847	-0.075201	-0.021578	0.16408	-0.11282	-0.26099	0.19228	-0.093617	-0.25676	0.21751	-0.046816	-0.15316	-0.008669	-0.046816	0.031938	-0.008669	0	0	0	-0.13663	0.031182	0.06041	-0.099238	0.017548	0.1728	-0.16105	-0.079662	0.060545
283	2.6943	-0.075164	-0.021568	0.16406	-0.11256	-0.26094	0.192	-0.093413	-0.25671	0.21726	-0.046816	-0.15316	-0.008669	-0.046816	0.031938	-0.008669	0	0	0	-0.13662	0.03119	0.060401	-0.099241	0.017559	0.17279	-0.16103	-0.079654	0.06053
284	2.7038	-0.075126	-0.021557	0.16405	-0.11229	-0.26088	0.19171	-0.093208	-0.25666	0.21702	-0.046816	-0.15316	-0.008669	-0.046816	0.031938	-0.008669	0	0	0	-0.13661	0.031199	0.060391	-0.099244	0.01757	0.17279	-0.16102	-0.079647	0.060514
285	2.7134	-0.075087	-0.021546	0.16403	-0.11202	-0.26083	0.19143	-0.093	-0.25661	0.21677	-0.046816	-0.15316	-0.008669	-0.046816	0.031938	-0.008669	0	0	0	-0.13659	0.031208	0.06038	-0.099247	0.017582	0.17278	-0.161	-0.079639	0.060498
286	2.7229	-0.075048	-0.021534	0.16401	-0.11175	-0.26077	0.19115	-0.092792	-0.25657	0.21652	-0.046816	-0.15316	-0.008669	-0.046816	0.031938	-0.008669	0	0	0	-0.13658	0.031217	0.060369	-0.09925	0.017594	0.17277	-0.16098	-0.079632	0.060482
287	2.7325	-0.075007	-0.021523	0.164	-0.11148	-0.26072	0.19086	-0.092583	-0.25652	0.21628	-0.046816	-0.15316	-0.008669	-0.046816	0.031938	-0.008669	0	0	0	-0.13657	0.031226	0.060357	-0.099253	0.017606	0.17276	-0.16096	-0.079624	0.060465
288	2.742	-0.074967	-0.021511	0.16398	-0.1112	-0.26066	0.19057	-0.092374	-0.25647	0.21603	-0.046816	-0.15316	-0.008669	-0.046816	0.031938	-0.008669	0	0	0	-0.13656	0.031235	0.060344	-0.099256	0.017619	0.17275	-0.16094	-0.079617	0.060449
289	2.7516	-0.074926	-0.021499	0.16396	-0.11093	-0.2606	0.19029	-0.092166	-0.25642	0.21579	-0.046816	-0.15316	-0.008669	-0.046816	0.031938	-0.008669	0	0	0	-0.13654	0.031244	0.060331	-0.099259	0.017632	0.17274	-0.16092	-0.07961	0.060432
290	2.7611	-0.074886	-0.021486	0.16395	-0.11067	-0.26055	0.19001	-0.091958	-0.25637	0.21554	-0.046816	-0.15316	-0.008669	-0.046816	0.031938	-0.008669	0	0	0	-0.13653	0.031253	0.060317	-0.099263	0.017645	0.17274	-0.1609	-0.079602	0.060415
291	2.7707	-0.074845	-0.021474	0.16393	-0.1104	-0.26049	0.18973	-0.091753	-0.25632	0.2153	-0.046816	-0.15316	-0.008669	-0.046816	0.031938	-0.008669	0	0	0	-0.13652	0.031262	0.060303	-0.099266	0.017658	0.17273	-0.16088	-0.079595	0.060397
292	2.7803	-0.074805	-0.021461	0.16391	-0.11014	-0.26043	0.18945	-0.09155	-0.25627	0.21507	-0.046816	-0.15316	-0.008669	-0.046816	0.031938	-0.008669	0	0	0	-0.1365	0.031271	0.060288	-0.09927	0.017672	0.17272	-0.16086	-0.079587	0.06038
293	2.7898	-0.074765	-0.021449	0.16389	-0.10988	-0.26037	0.18917	-0.091349	-0.25622	0.21484	-0.046816	-0.15316	-0.008669	-0.046816	0.031938	-0.008669	0	0	0	-0.13649	0.03128	0.060272	-0.099273	0.017685	0.17271	-0.16084	-0.07958	0.060362
294	2.7994	-0.074726	-0.021436	0.16388	-0.10962	-0.26032	0.1889	-0.091152	-0.25617	0.21461	-0.046816	-0.15316	-0.008669	-0.046816	0.031938	-0.008669	0	0	0	-0.13647	0.031288	0.060256	-0.099277	0.017699	0.1727	-0.16082	-0.079573	0.060344
295	2.8089	-0.074688	-0.021423	0.16386	-0.10937	-0.26026	0.18863	-0.090959	-0.25612	0.21438	-0.046816	-0.15316	-0.008669	-0.046816	0.031938	-0.008669	0	0	0	-0.13646	0.031297	0.060239	-0.099281	0.017713	0.17268	-0.1608	-0.079566	0.060326
296	2.8185	-0.074651	-0.021409	0.16384	-0.10913	-0.2602	0.18837	-0.09077	-0.25607	0.21416	-0.046816	-0.15316	-0.008669	-0.046816	0.031938	-0.008669	0	0	0	-0.13645	0.031306	0.060221	-0.099285	0.017727	0.17267	-0.16078	-0.079559	0.060308
297	2.828	-0.074615	-0.021396	0.16382	-0.10889	-0.26014	0.18811	-0.090586	-0.25602	0.21395	-0.046816	-0.15316	-0.008669	-0.046816	0.031938	-0.008669	0	0	0	-0.13643	0.031315	0.060203	-0.09929	0.017741	0.17266	-0.16076	-0.079552	0.06029
298	2.8376	-0.07458	-0.021382	0.16381	-0.10866	-0.26008	0.18786	-0.090408	-0.25597	0.21374	-0.046816	-0.15316	-0.008669	-0.046816	0.031938	-0.008669	0	0	0	-0.13642	0.031323	0.060184	-0.099294	0.017756	0.17265	-0.16074	-0.079545	0.060271
299	2.8471	-0.074547	-0.021369	0.16379	-0.10844	-0.26002	0.18762	-0.090237	-0.25592	0.21354	-0.046816	-0.15316	-0.008669	-0.046816	0.031938	-0.008669	0	0	0	-0.1364	0.031332	0.060165	-0.099299	0.01777	0.17264	-0.16072	-0.079539	0.060253
300	2.8567	-0.074516	-0.021355	0.16377	-0.10822	-0.25996	0.18738	-0.090071	-0.25587	0.21335	-0.046816	-0.15316	-0.008669	-0.046816	0.031938	-0.008669	0	0	0	-0.13639	0.03134	0.060145	-0.099304	0.017785	0.17263	-0.1607	-0.079532	0.060235
301	2.8662	-0.074486	-0.021341	0.16376	-0.10802	-0.2599	0.18715	-0.089914	-0.25581	0.21317	-0.046816	-0.15316	-0.008669	-0.046816	0.031938	-0.008669	0	0	0	-0.13637	0.031348	0.060124	-0.09931	0.0178	0.17262	-0.16068	-0.079526	0.060216
302	2.8758	-0.074459	-0.021326	0.16374	-0.10783	-0.25984	0.18693	-0.089764	-0.25576	0.21299	-0.046816	-0.15316	-0.008669	-0.046816	0.031938	-0.008669	0	0	0	-0.13636	0.031356	0.060103	-0.099315	0.017814	0.1726	-0.16066	-0.079519	0.060198
303	2.8854	-0.074433	-0.021312	0.16372	-0.10765	-0.25978	0.18672	-0.089622	-0.25571	0.21282	-0.046816	-0.15316	-0.008669	-0.046816	0.031938	-0.008669	0	0	0	-0.13634	0.031364	0.060081	-0.099321	0.017829	0.17259	-0.16064	-0.079513	0.060179
304	2.8949	-0.07441	-0.021298	0.1637	-0.10747	-0.25972	0.18652	-0.08949	-0.25565	0.21267	-0.046816	-0.15316	-0.008669	-0.046816	0.031938	-0.008669	0	0	0	-0.13633	0.031372	0.060058	-0.099328	0.017844	0.17258	-0.16061	-0.079507	0.060161
305	2.9045	-0.07439	-0.021283	0.16369	-0.10732	-0.25966	0.18633	-0.089367	-0.2556	0.21252	-0.046816	-0.15316	-0.008669	-0.046816	0.031938	-0.008669	0	0	0	-0.13631	0.031379	0.060035	-0.099334	0.017859	0.17257	-0.16059	-0.079502	0.060143
306	2.914	-0.074372	-0.021268	0.16367	-0.10717	-0.2596	0.18615	-0.089254	-0.25555	0.21238	-0.046816	-0.15316	-0.008669	-0.046816	0.031938	-0.008669	0	0	0	-0.1363	0.031387	0.060011	-0.099341	0.017874	0.17256	-0.16057	-0.079496	0.060125
307	2.9236	-0.074357	-0.021254	0.16365	-0.10704	-0.25953	0.18598	-0.089152	-0.25549	0.21225	-0.046816	-0.15316	-0.008669	-0.046816	0.031938	-0.008669	0	0	0	-0.13628	0.031394	0.059987	-0.099349	0.017889	0.17254	-0.16055	-0.079491	0.060106
308	2.9331	-0.074345	-0.021239	0.16364	-0.10692	-0.25947	0.18582	-0.089061	-0.25543	0.21214	-0.046816	-0.15316	-0.008669	-0.046816	0.031938	-0.008669	0	0	0	-0.13627	0.0314	0.059962	-0.099357	0.017904	0.17253	-0.16053	-0.079486	0.060088
309	2.9427	-0.074336	-0.021224	0.16362	-0.10682	-0.25941	0.18568	-0.088981	-0.25538	0.21203	-0.046816	-0.15316	-0.008669	-0.046816	0.031938	-0.008669	0	0	0	-0.13625	0.031407	0.059936	-0.099365	0.017919	0.17252	-0.16051	-0.079481	0.060071
310	2.9522	-0.07433	-0.021209	0.16361	-0.10673	-0.25935	0.18555	-0.088914	-0.25532	0.21194	-0.046816	-0.15316	-0.008669	-0.046816	0.031938	-0.008669	0	0	0	-0.13623	0.031413	0.05991	-0.099373	0.017934	0.1725	-0.16049	-0.079476	0.060053
311	2.9618	-0.074328	-0.021194	0.16359	-0.10667	-0.25928	0.18543	-0.08886	-0.25526	0.21187	-0.046816	-0.15316	-0.008669	-0.046816	0.031938	-0.008669	0	0	0	-0.13622	0.03142	0.059883	-0.099382	0.017948	0.17249	-0.16047	-0.079472	0.060035
312	2.9713	-0.07433	-0.021178	0.16357	-0.10661	-0.25922	0.18533	-0.08882	-0.25521	0.2118	-0.046816	-0.15316	-0.008669	-0.046816	0.031938	-0.008669	0	0	0	-0.1362	0.031425	0.059855	-0.099392	0.017963	0.17248	-0.16046	-0.079468	0.060018
313	2.9809	-0.074336	-0.021163	0.16356	-0.10658	-0.25916	0.18524	-0.088794	-0.25515	0.21175	-0.046816	-0.15316	-0.008669	-0.046816	0.031938	-0.008669	0	0	0	-0.13619	0.031431	0.059827	-0.099402	0.017978	0.17247	-0.16044	-0.079464	0.060001
314	2.9904	-0.074345	-0.021147	0.16354	-0.10657	-0.25909	0.18517	-0.088782	-0.25509	0.21172	-0.046816	-0.15316	-0.008669	-0.046816	0.031938	-0.008669	0	0	0	-0.13617	0.031436	0.059798	-0.099412	0.017992	0.17245	-0.16042	-0.07946	0.059984
315	3	-0.074359	-0.021132	0.16353	-0.10657	-0.25903	0.18511	-0.088785	-0.25503	0.2117	-0.046816	-0.15316	-0.008669	-0.046816	0.031938	-0.008669	0	0	0	-0.13616	0.031441	0.059769	-0.099423	0.018007	0.17244	-0.1604	-0.079457	0.059967
316	3.0096	-0.074379	-0.021112	0.16352	-0.1066	-0.25896	0.1851	-0.088826	-0.25496	0.21173	-0.046816	-0.15316	-0.008669	-0.046816	0.031938	-0.008669	0	0	0	-0.13615	0.031443	0.059733	-0.09944	0.018023	0.17242	-0.16038	-0.079457	0.059949
317	3.0191	-0.074406	-0.021084	0.1635	-0.10665	-0.25887	0.18518	-0.088924	-0.25485	0.21186	-0.046816	-0.15316	-0.008669	-0.046816	0.031938	-0.008669	0	0	0	-0.13613	0.03144	0.059685	-0.099467	0.018044	0.1724	-0.16036	-0.079463	0.059926
318	3.0287	-0.07444	-0.021048	0.16349	-0.10673	-0.25877	0.18535	-0.089078	-0.25472	0.21206	-0.046816	-0.15316	-0.008669	-0.046816	0.031938	-0.008669	0	0	0	-0.13611	0.031431	0.059625	-0.099506	0.018068	0.17237	-0.16035	-0.079474	0.059901
319	3.0382	-0.07448	-0.021004	0.16348	-0.10683	-0.25865	0.18559	-0.089287	-0.25457	0.21235	-0.046816	-0.15316	-0.008669	-0.046816	0.031938	-0.008669	0	0	0	-0.1361	0.031417	0.059554	-0.099554	0.018096	0.17233	-0.16033	-0.079491	0.059871
320	3.0478	-0.074528	-0.020953	0.16346	-0.10696	-0.25852	0.18591	-0.089547	-0.25438	0.21273	-0.046816	-0.15316	-0.008669	-0.046816	0.031938	-0.008669	0	0	0	-0.13608	0.031397	0.059471	-0.099613	0.018129	0.17229	-0.16031	-0.079514	0.059839
321	3.0573	-0.074582	-0.020893	0.16345	-0.10711	-0.25837	0.1863	-0.089856	-0.25417	0.21318	-0.046816	-0.15316	-0.008669	-0.046816	0.031938	-0.008669	0	0	0	-0.13606	0.031373	0.059377	-0.099681	0.018165	0.17224	-0.16029	-0.079542	0.059804
322	3.0669	-0.074642	-0.020826	0.16344	-0.10728	-0.25821	0.18677	-0.090214	-0.25393	0.2137	-0.046816	-0.15316	-0.008669	-0.046816	0.031938	-0.008669	0	0	0	-0.13604	0.031344	0.059273	-0.099759	0.018204	0.17218	-0.16027	-0.079575	0.059765
323	3.0764	-0.074708	-0.020751	0.16343	-0.10747	-0.25803	0.18731	-0.090617	-0.25367	0.2143	-0.046816	-0.15316	-0.008669	-0.046816	0.031938	-0.008669	0	0	0	-0.13602	0.03131	0.059159	-0.099846	0.018248	0.17212	-0.16025	-0.079613	0.059724
324	3.086	-0.07478	-0.020669	0.16342	-0.10768	-0.25784	0.18792	-0.091065	-0.25338	0.21498	-0.046816	-0.15316	-0.008669	-0.046816	0.031938	-0.008669	0	0	0	-0.136	0.031271	0.059035	-0.099941	0.018295	0.17205	-0.16023	-0.079656	0.05968
325	3.0955	-0.074857	-0.02058	0.16341	-0.10791	-0.25763	0.18859	-0.091554	-0.25307	0.21572	-0.046816	-0.15316	-0.008669	-0.046816	0.031938	-0.008669	0	0	0	-0.13598	0.031227	0.058902	-0.10005	0.018346	0.17197	-0.16021	-0.079704	0.059634
